<?xml version="1.0" encoding="utf-8"?>
<!-- Generator: Adobe Illustrator 23.0.6, SVG Export Plug-In . SVG Version: 6.00 Build 0)  -->
<svg version="1.1" id="Layer_1" xmlns="http://www.w3.org/2000/svg" xmlns:xlink="http://www.w3.org/1999/xlink" x="0px" y="0px"
	 viewBox="0 0 6602.3 776" style="enable-background:new 0 0 6602.3 776;" xml:space="preserve">
<style type="text/css">
	.st0{fill:#6C3C97;}
	.st1{fill:#A8A5D2;}
</style>
<path class="st0" d="M394,255.2c0-71-57.1-128.2-127-128.2h-63v255.2h63C336.8,382.2,394,325,394,255.2 M680.4,764H449.2
	L265.7,509.3H204v254.1H0.3V0h291.8c168.2,0,305.5,114.4,305.5,255.2c0,85.8-52.6,162.5-132.8,209.4L680.4,764"/>
<path class="st0" d="M910.1,301c-53.8,0-99.6,73.1-99.6,163.6s45.8,163.7,99.6,163.7c55,0,100.7-73.2,100.7-163.7
	S965.2,301,910.1,301 M1223.7,464.6c0,172.9-140.6,311.4-313.5,311.4S597.7,637.5,597.7,464.6c0-172.8,139.6-311.3,312.5-311.3
	C1083,153.3,1223.7,291.8,1223.7,464.6 M1701.7,165.9L1467,400.6V165.2h-203.7v598.3H1467V520.7l245,242.7h256.3L1657,452
	l257.9-257.8v355c0,117.9,70.9,226.7,249.4,226.7c84.7,0,162.5-48.1,200.3-91.6l91.6,79h43.5V165.9H2296v386.8
	c-22.9,40-54.9,65.2-104.3,65.2c-50.1,0-73.1-29.7-73.1-124.7V165.9H1701.7L1701.7,165.9z"/>
<g>
	<path class="st1" d="M2599.9,194h401.3v58.2H2663v199.4h302.4v57.4H2663v243.3h-63V194z"/>
	<path class="st1" d="M3118.5,170.1h61.4v582.4h-61.4V170.1z"/>
	<path class="st1" d="M3291.6,632.8v-1.6c0-88.6,71.8-134.8,176.3-134.8c52.7,0,89.4,7.2,126.1,17.6v-12.8
		c0-73.4-44.7-111.7-122.1-111.7c-48.7,0-87,12-125.3,29.5l-18.3-50.3c45.5-20.7,89.4-35.1,150-35.1c58.2,0,103.7,16,133.2,45.5
		c28.7,28.7,43.1,68.6,43.1,121.3v252.1H3594v-61.4c-28.7,36.7-75.8,70.2-148.4,70.2C3368.2,761.3,3291.6,717.4,3291.6,632.8z
		 M3594.8,600.9v-38.3c-30.3-8.8-70.2-17.6-120.5-17.6c-76.6,0-120.5,33.5-120.5,83v1.6c0,51.9,47.9,82.2,103.7,82.2
		C3533.3,711.8,3594.8,666.3,3594.8,600.9z"/>
	<path class="st1" d="M3750.3,699.8l31.1-43.9c44.7,33.5,94.1,52.7,142.8,52.7c49.5,0,85.4-25.5,85.4-65.4v-1.6
		c0-41.5-48.7-57.4-102.9-72.6c-64.6-18.3-136.4-40.7-136.4-116.5v-1.6c0-71,59-118.1,140.4-118.1c50.3,0,106.1,17.6,148.4,45.5
		l-27.9,46.3c-38.3-24.7-82.2-39.9-122.1-39.9c-48.7,0-79.8,25.5-79.8,59.8v1.6c0,39.1,51.1,54.2,106.1,71
		c63.8,19.1,132.4,43.9,132.4,118.1v1.6c0,78.2-64.6,123.7-146.8,123.7C3862,760.5,3796.6,737.3,3750.3,699.8z"/>
	<path class="st1" d="M4181.9,170.1h61.4v241.7c27.1-44.7,70.2-80.6,141.2-80.6c99.7,0,158,67,158,165.1v256.1h-61.4V511.6
		c0-76.6-41.5-124.5-114.1-124.5c-71,0-123.7,51.9-123.7,129.2v236.1h-61.4V170.1z"/>
	<path class="st1" d="M4734.8,673.5v79h-61.4V170.1h61.4V423c33.5-49.5,82.2-91.7,158-91.7c98.9,0,197.1,78.2,197.1,213.8v1.6
		c0,134.8-97.3,214.6-197.1,214.6C4816.2,761.3,4766.7,719.8,4734.8,673.5z M5026.8,547.5v-1.6c0-97.3-67-159.6-145.2-159.6
		c-76.6,0-149.2,64.6-149.2,158.8v1.6c0,95.7,72.6,159.6,149.2,159.6C4961.4,706.2,5026.8,647.2,5026.8,547.5z"/>
	<path class="st1" d="M5172,632.8v-1.6c0-88.6,71.8-134.8,176.3-134.8c52.7,0,89.4,7.2,126.1,17.6v-12.8
		c0-73.4-44.7-111.7-122.1-111.7c-48.7,0-87,12-125.3,29.5l-18.3-50.3c45.5-20.7,89.4-35.1,150-35.1c58.2,0,103.7,16,133.2,45.5
		c28.7,28.7,43.1,68.6,43.1,121.3v252.1h-60.6v-61.4c-28.7,36.7-75.8,70.2-148.4,70.2C5248.6,761.3,5172,717.4,5172,632.8z
		 M5475.1,600.9v-38.3c-30.3-8.8-70.2-17.6-120.5-17.6c-76.6,0-120.5,33.5-120.5,83v1.6c0,51.9,47.9,82.2,103.7,82.2
		C5413.7,711.8,5475.1,666.3,5475.1,600.9z"/>
	<path class="st1" d="M5639.5,548.3v-1.6c0-116.5,90.9-215.4,211.4-215.4c78.2,0,126.8,32.7,165.1,73.4l-40.7,43.1
		c-32.7-34.3-69.4-62.2-125.3-62.2c-83.8,0-147.6,71-147.6,159.6v1.6c0,89.4,65.4,160.4,151.6,160.4c52.7,0,93.3-26.3,126.1-61.4
		l39.1,36.7c-41.5,46.3-90.9,79.8-168.3,79.8C5730.4,762.1,5639.5,663.9,5639.5,548.3z"/>
	<path class="st1" d="M6120.5,170.1h61.4v402.1L6404.6,340h76.6L6308,517.2l178.7,235.3h-73.4l-147.6-192.3l-83.8,84.6v107.7h-61.4
		V170.1z"/>
</g>
</svg>
